<svg xmlns="http://www.w3.org/2000/svg" xmlns:xlink="http://www.w3.org/1999/xlink" width="500" zoomAndPan="magnify" viewBox="0 0 375 374.999991" height="500" preserveAspectRatio="xMidYMid meet" version="1.0"><defs><clipPath id="4c0ce662d1"><path d="M 20.453125 0 L 354.203125 0 L 354.203125 375 L 20.453125 375 Z M 20.453125 0 " clip-rule="nonzero"/></clipPath><clipPath id="f1c4ca5de6"><path d="M 45.316406 40.066406 L 328.066406 40.066406 L 328.066406 322.816406 L 45.316406 322.816406 Z M 45.316406 40.066406 " clip-rule="nonzero"/></clipPath><clipPath id="ade866347b"><path d="M 54.636719 46.066406 L 337.386719 46.066406 L 337.386719 328.816406 L 54.636719 328.816406 Z M 54.636719 46.066406 " clip-rule="nonzero"/></clipPath></defs><path fill="#f9f9f9" d="M 187.328125 4.070312 L 24.804688 85.414062 L 187.328125 166.757812 L 349.855469 85.414062 Z M 187.328125 4.070312 " fill-opacity="1" fill-rule="nonzero"/><path fill="#ececec" d="M 187.328125 166.757812 L 187.328125 370.121094 L 349.855469 288.773438 L 349.855469 85.414062 Z M 187.328125 166.757812 " fill-opacity="1" fill-rule="nonzero"/><path fill="#cccccc" d="M 187.328125 166.757812 L 187.328125 370.121094 L 24.804688 288.773438 L 24.804688 85.414062 Z M 187.328125 166.757812 " fill-opacity="1" fill-rule="nonzero"/><g clip-path="url(#4c0ce662d1)"><path stroke-linecap="butt" transform="matrix(8.126216, 0, 0, 8.13449, -56.456922, -15.14642)" fill="none" stroke-linejoin="miter" d="M 29.999825 2.374862 L 9.999933 12.375201 L 9.999933 37.374847 L 29.999825 47.375186 L 50.000198 37.374847 L 50.000198 12.375201 Z M 29.999825 2.374862 " stroke="#4d4d4d" stroke-width="1" stroke-opacity="1" stroke-miterlimit="4"/></g><path fill="#000000" d="M 168.601562 207.804688 L 159.285156 223.929688 L 168.601562 240.058594 L 187.222656 240.058594 L 196.535156 223.929688 L 187.222656 207.804688 Z M 168.601562 207.804688 " fill-opacity="1" fill-rule="nonzero"/><g clip-path="url(#f1c4ca5de6)"><path fill="#000000" d="M 206.402344 40.066406 L 165.242188 40.316406 L 159.238281 70.570312 C 147.628906 73.441406 136.738281 78.023438 126.566406 84.3125 L 100.742188 67.472656 L 71.792969 96.734375 L 88.914062 122.371094 C 82.691406 132.65625 78.199219 143.648438 75.441406 155.351562 L 45.316406 161.710938 L 45.566406 202.875 L 75.820312 208.878906 C 75.832031 208.917969 75.84375 208.953125 75.855469 208.992188 L 151.164062 208.992188 C 151.46875 208.445312 151.792969 207.910156 152.128906 207.382812 C 152.679688 206.523438 153.273438 205.691406 153.910156 204.890625 C 154.542969 204.089844 155.21875 203.320312 155.929688 202.585938 C 156.640625 201.855469 157.390625 201.15625 158.171875 200.496094 C 158.953125 199.839844 159.765625 199.21875 160.609375 198.640625 C 161.453125 198.0625 162.320312 197.53125 163.21875 197.039062 C 164.117188 196.546875 165.035156 196.105469 165.976562 195.707031 C 166.917969 195.308594 167.878906 194.957031 168.855469 194.652344 C 169.832031 194.351562 170.820312 194.097656 171.824219 193.894531 C 172.824219 193.691406 173.835938 193.539062 174.851562 193.4375 C 175.871094 193.332031 176.890625 193.28125 177.910156 193.28125 C 178.636719 193.28125 179.359375 193.308594 180.082031 193.359375 C 181.101562 193.429688 182.113281 193.554688 183.121094 193.726562 C 184.128906 193.902344 185.125 194.125 186.113281 194.398438 C 187.097656 194.671875 188.066406 194.996094 189.019531 195.363281 C 189.972656 195.734375 190.902344 196.152344 191.8125 196.617188 C 192.726562 197.078125 193.609375 197.585938 194.472656 198.140625 C 195.332031 198.691406 196.164062 199.285156 196.964844 199.921875 C 197.765625 200.558594 198.53125 201.230469 199.265625 201.945312 C 200 202.65625 200.695312 203.40625 201.355469 204.1875 C 202.011719 204.96875 202.628906 205.78125 203.207031 206.625 C 203.785156 207.46875 204.320312 208.339844 204.808594 209.238281 C 205.296875 210.132812 205.742188 211.054688 206.140625 211.996094 C 206.539062 212.9375 206.890625 213.898438 207.191406 214.875 C 207.496094 215.851562 207.746094 216.839844 207.949219 217.839844 C 208.152344 218.84375 208.304688 219.851562 208.410156 220.871094 C 208.511719 221.886719 208.5625 222.910156 208.5625 223.929688 C 208.5625 224.652344 208.535156 225.375 208.484375 226.097656 C 208.414062 227.117188 208.289062 228.132812 208.113281 229.140625 C 207.941406 230.148438 207.71875 231.144531 207.445312 232.128906 C 207.171875 233.113281 206.847656 234.082031 206.476562 235.035156 C 206.105469 235.988281 205.691406 236.921875 205.226562 237.832031 C 204.761719 238.742188 204.253906 239.628906 203.703125 240.488281 C 203.148438 241.351562 202.554688 242.179688 201.917969 242.980469 C 201.285156 243.78125 200.609375 244.550781 199.898438 245.28125 C 199.1875 246.015625 198.4375 246.710938 197.65625 247.371094 C 196.875 248.03125 196.0625 248.648438 195.214844 249.222656 C 194.371094 249.800781 193.5 250.335938 192.605469 250.828125 C 191.707031 251.316406 190.789062 251.761719 189.847656 252.160156 C 188.90625 252.558594 187.945312 252.90625 186.96875 253.207031 C 185.992188 253.511719 185.003906 253.765625 184 253.96875 C 183 254.171875 181.988281 254.324219 180.972656 254.425781 C 179.953125 254.527344 178.933594 254.578125 177.910156 254.578125 C 177.296875 254.578125 176.679688 254.558594 176.066406 254.519531 C 175.042969 254.457031 174.027344 254.34375 173.019531 254.179688 C 172.011719 254.015625 171.011719 253.800781 170.023438 253.535156 C 169.039062 253.269531 168.066406 252.957031 167.109375 252.597656 C 166.152344 252.234375 165.214844 251.824219 164.300781 251.371094 C 163.386719 250.914062 162.496094 250.414062 161.632812 249.871094 C 160.765625 249.324219 159.929688 248.738281 159.121094 248.109375 C 158.316406 247.484375 157.542969 246.816406 156.800781 246.109375 C 156.0625 245.40625 155.359375 244.664062 154.695312 243.886719 C 154.027344 243.109375 153.402344 242.304688 152.816406 241.464844 C 152.234375 240.628906 151.691406 239.761719 151.191406 238.871094 L 88.042969 238.871094 C 88.539062 239.769531 89.046875 240.664062 89.5625 241.550781 L 72.722656 267.375 L 101.984375 296.324219 L 127.621094 279.203125 C 137.90625 285.425781 148.898438 289.917969 160.601562 292.675781 L 166.960938 322.800781 L 208.125 322.550781 L 214.128906 292.300781 C 225.738281 289.425781 236.628906 284.84375 246.800781 278.554688 L 272.625 295.398438 L 301.570312 266.132812 L 284.453125 240.496094 C 290.675781 230.210938 295.167969 219.21875 297.925781 207.515625 L 328.050781 201.15625 L 327.796875 159.992188 L 299.292969 154.335938 L 299.109375 154.65625 L 209.71875 154.65625 C 209.410156 155.203125 209.089844 155.738281 208.753906 156.265625 C 208.191406 157.144531 207.589844 157.988281 206.941406 158.804688 C 206.296875 159.621094 205.613281 160.402344 204.890625 161.148438 C 204.167969 161.894531 203.40625 162.605469 202.613281 163.273438 C 201.816406 163.945312 200.992188 164.578125 200.132812 165.164062 C 199.277344 165.753906 198.390625 166.296875 197.480469 166.796875 C 196.570312 167.296875 195.632812 167.75 194.675781 168.15625 C 193.71875 168.5625 192.742188 168.921875 191.75 169.230469 C 190.757812 169.539062 189.75 169.796875 188.734375 170.003906 C 187.714844 170.210938 186.6875 170.367188 185.652344 170.472656 C 184.617188 170.578125 183.582031 170.632812 182.542969 170.632812 C 181.90625 170.632812 181.273438 170.613281 180.636719 170.574219 C 179.597656 170.511719 178.566406 170.394531 177.539062 170.226562 C 176.515625 170.058594 175.5 169.839844 174.496094 169.574219 C 173.488281 169.304688 172.5 168.984375 171.527344 168.617188 C 170.554688 168.25 169.605469 167.832031 168.671875 167.371094 C 167.742188 166.90625 166.835938 166.398438 165.957031 165.847656 C 165.074219 165.292969 164.226562 164.695312 163.40625 164.054688 C 162.585938 163.417969 161.796875 162.738281 161.046875 162.019531 C 160.292969 161.304688 159.578125 160.550781 158.902344 159.761719 C 158.222656 158.972656 157.585938 158.152344 156.992188 157.296875 C 156.398438 156.445312 155.847656 155.566406 155.339844 154.65625 L 179.621094 154.65625 L 188.390625 139.464844 L 179.621094 124.269531 L 155.363281 124.269531 C 155.671875 123.722656 155.992188 123.183594 156.332031 122.65625 C 156.890625 121.78125 157.496094 120.933594 158.140625 120.121094 C 158.785156 119.304688 159.46875 118.523438 160.191406 117.777344 C 160.914062 117.027344 161.675781 116.320312 162.46875 115.648438 C 163.265625 114.976562 164.089844 114.347656 164.949219 113.757812 C 165.804688 113.171875 166.691406 112.625 167.601562 112.125 C 168.515625 111.625 169.449219 111.171875 170.40625 110.765625 C 171.363281 110.359375 172.339844 110.003906 173.332031 109.695312 C 174.324219 109.386719 175.332031 109.128906 176.347656 108.917969 C 177.367188 108.710938 178.394531 108.554688 179.429688 108.449219 C 180.464844 108.34375 181.5 108.292969 182.542969 108.289062 C 183.179688 108.289062 183.8125 108.308594 184.449219 108.347656 C 185.488281 108.414062 186.519531 108.527344 187.546875 108.695312 C 188.574219 108.863281 189.589844 109.082031 190.59375 109.351562 C 191.597656 109.621094 192.585938 109.9375 193.558594 110.304688 C 194.53125 110.675781 195.480469 111.089844 196.414062 111.554688 C 197.34375 112.015625 198.25 112.527344 199.128906 113.078125 C 200.011719 113.632812 200.863281 114.230469 201.683594 114.867188 C 202.503906 115.507812 203.289062 116.1875 204.039062 116.902344 C 204.792969 117.621094 205.507812 118.375 206.183594 119.164062 C 206.863281 119.953125 207.5 120.773438 208.09375 121.628906 C 208.6875 122.480469 209.238281 123.363281 209.746094 124.269531 L 285.46875 124.269531 C 284.929688 123.277344 284.371094 122.292969 283.800781 121.316406 L 300.644531 95.492188 L 271.382812 66.546875 L 245.746094 83.667969 C 235.460938 77.441406 224.46875 72.949219 212.765625 70.195312 Z M 206.402344 40.066406 " fill-opacity="1" fill-rule="nonzero"/></g><path fill="#46b14f" d="M 177.964844 213.867188 L 168.648438 230 L 177.964844 246.132812 L 196.59375 246.132812 L 205.910156 230 L 196.59375 213.867188 Z M 177.964844 213.867188 " fill-opacity="1" fill-rule="nonzero"/><g clip-path="url(#ade866347b)"><path fill="#46b14f" d="M 215.78125 46.066406 L 174.605469 46.320312 L 168.597656 76.582031 C 156.984375 79.453125 146.089844 84.039062 135.914062 90.332031 L 110.082031 73.480469 L 81.121094 102.757812 L 98.25 128.402344 C 92.023438 138.691406 87.53125 149.6875 84.769531 161.394531 L 54.636719 167.757812 L 54.886719 208.933594 L 85.148438 214.941406 C 85.160156 214.980469 85.171875 215.015625 85.183594 215.054688 L 160.523438 215.054688 C 160.828125 214.507812 161.148438 213.972656 161.488281 213.445312 C 162.039062 212.582031 162.632812 211.753906 163.269531 210.953125 C 163.902344 210.148438 164.578125 209.382812 165.289062 208.648438 C 166.003906 207.914062 166.75 207.21875 167.53125 206.558594 C 168.3125 205.898438 169.125 205.28125 169.96875 204.699219 C 170.8125 204.125 171.683594 203.589844 172.582031 203.097656 C 173.480469 202.605469 174.398438 202.164062 175.339844 201.761719 C 176.28125 201.363281 177.242188 201.015625 178.21875 200.710938 C 179.195312 200.410156 180.1875 200.15625 181.1875 199.953125 C 182.191406 199.75 183.199219 199.59375 184.21875 199.492188 C 185.234375 199.390625 186.257812 199.339844 187.28125 199.339844 C 188.003906 199.339844 188.726562 199.363281 189.449219 199.414062 C 190.46875 199.488281 191.484375 199.613281 192.492188 199.785156 C 193.5 199.960938 194.496094 200.183594 195.484375 200.457031 C 196.46875 200.730469 197.4375 201.050781 198.390625 201.421875 C 199.34375 201.792969 200.277344 202.210938 201.1875 202.675781 C 202.097656 203.136719 202.984375 203.644531 203.84375 204.199219 C 204.707031 204.75 205.539062 205.34375 206.339844 205.980469 C 207.140625 206.617188 207.90625 207.292969 208.640625 208.003906 C 209.375 208.71875 210.070312 209.464844 210.730469 210.246094 C 211.390625 211.03125 212.007812 211.84375 212.585938 212.6875 C 213.164062 213.53125 213.695312 214.402344 214.1875 215.300781 C 214.675781 216.199219 215.121094 217.117188 215.519531 218.058594 C 215.917969 219 216.269531 219.960938 216.570312 220.9375 C 216.875 221.914062 217.125 222.90625 217.328125 223.90625 C 217.53125 224.910156 217.683594 225.917969 217.789062 226.9375 C 217.890625 227.957031 217.941406 228.976562 217.941406 230 C 217.941406 230.722656 217.914062 231.445312 217.863281 232.167969 C 217.792969 233.1875 217.667969 234.203125 217.492188 235.210938 C 217.320312 236.21875 217.097656 237.214844 216.824219 238.199219 C 216.550781 239.183594 216.226562 240.15625 215.855469 241.109375 C 215.484375 242.0625 215.066406 242.996094 214.601562 243.90625 C 214.140625 244.816406 213.632812 245.703125 213.078125 246.5625 C 212.527344 247.425781 211.933594 248.257812 211.296875 249.058594 C 210.660156 249.859375 209.988281 250.625 209.273438 251.359375 C 208.5625 252.09375 207.8125 252.789062 207.03125 253.449219 C 206.25 254.109375 205.433594 254.726562 204.589844 255.300781 C 203.746094 255.878906 202.875 256.414062 201.976562 256.90625 C 201.082031 257.394531 200.160156 257.839844 199.21875 258.238281 C 198.277344 258.636719 197.316406 258.984375 196.339844 259.289062 C 195.363281 259.589844 194.371094 259.84375 193.371094 260.046875 C 192.367188 260.25 191.359375 260.402344 190.339844 260.503906 C 189.324219 260.605469 188.300781 260.660156 187.28125 260.660156 C 186.664062 260.65625 186.046875 260.636719 185.433594 260.597656 C 184.410156 260.535156 183.394531 260.421875 182.386719 260.257812 C 181.375 260.09375 180.378906 259.878906 179.390625 259.613281 C 178.402344 259.351562 177.429688 259.039062 176.472656 258.675781 C 175.515625 258.3125 174.578125 257.902344 173.664062 257.449219 C 172.75 256.992188 171.859375 256.492188 170.992188 255.949219 C 170.125 255.402344 169.289062 254.816406 168.484375 254.1875 C 167.675781 253.558594 166.902344 252.894531 166.160156 252.1875 C 165.421875 251.480469 164.71875 250.738281 164.054688 249.964844 C 163.386719 249.1875 162.761719 248.378906 162.175781 247.539062 C 161.589844 246.703125 161.050781 245.835938 160.550781 244.945312 L 97.378906 244.945312 C 97.871094 245.84375 98.378906 246.738281 98.898438 247.628906 L 82.050781 273.460938 L 111.324219 302.417969 L 136.96875 285.292969 C 147.257812 291.519531 158.257812 296.011719 169.960938 298.769531 L 176.324219 328.90625 L 217.503906 328.65625 L 223.511719 298.394531 C 235.125 295.519531 246.019531 290.9375 256.195312 284.644531 L 282.027344 301.492188 L 310.984375 272.21875 L 293.859375 246.570312 C 300.085938 236.28125 304.578125 225.285156 307.335938 213.578125 L 337.472656 207.214844 L 337.222656 166.039062 L 308.707031 160.378906 L 308.523438 160.699219 L 219.097656 160.699219 C 218.792969 161.246094 218.46875 161.785156 218.132812 162.3125 C 217.570312 163.1875 216.96875 164.035156 216.320312 164.847656 C 215.675781 165.664062 214.992188 166.445312 214.269531 167.195312 C 213.542969 167.941406 212.785156 168.648438 211.988281 169.320312 C 211.195312 169.992188 210.367188 170.625 209.511719 171.210938 C 208.652344 171.800781 207.769531 172.34375 206.855469 172.84375 C 205.941406 173.34375 205.007812 173.796875 204.050781 174.203125 C 203.09375 174.609375 202.117188 174.96875 201.125 175.277344 C 200.128906 175.585938 199.125 175.84375 198.105469 176.050781 C 197.085938 176.261719 196.058594 176.417969 195.023438 176.523438 C 193.988281 176.628906 192.949219 176.679688 191.910156 176.683594 C 191.273438 176.683594 190.640625 176.664062 190.007812 176.625 C 188.96875 176.558594 187.933594 176.441406 186.90625 176.277344 C 185.882812 176.109375 184.867188 175.890625 183.863281 175.621094 C 182.855469 175.351562 181.867188 175.035156 180.894531 174.664062 C 179.921875 174.296875 178.96875 173.882812 178.039062 173.417969 C 177.105469 172.953125 176.199219 172.445312 175.320312 171.894531 C 174.4375 171.339844 173.589844 170.742188 172.769531 170.101562 C 171.945312 169.460938 171.160156 168.785156 170.40625 168.066406 C 169.652344 167.347656 168.9375 166.59375 168.261719 165.804688 C 167.585938 165.015625 166.949219 164.195312 166.351562 163.339844 C 165.757812 162.488281 165.207031 161.609375 164.699219 160.699219 L 188.988281 160.699219 L 197.761719 145.5 L 188.988281 130.300781 L 164.722656 130.300781 C 165.03125 129.753906 165.351562 129.214844 165.691406 128.6875 C 166.25 127.808594 166.855469 126.964844 167.5 126.148438 C 168.144531 125.332031 168.828125 124.550781 169.554688 123.804688 C 170.277344 123.058594 171.035156 122.347656 171.832031 121.675781 C 172.628906 121.003906 173.453125 120.375 174.3125 119.785156 C 175.167969 119.199219 176.054688 118.652344 176.964844 118.152344 C 177.878906 117.652344 178.8125 117.199219 179.769531 116.792969 C 180.730469 116.386719 181.703125 116.03125 182.699219 115.722656 C 183.691406 115.410156 184.699219 115.152344 185.714844 114.945312 C 186.734375 114.738281 187.761719 114.582031 188.796875 114.476562 C 189.832031 114.371094 190.871094 114.316406 191.910156 114.316406 C 192.546875 114.316406 193.183594 114.335938 193.820312 114.375 C 194.859375 114.4375 195.890625 114.554688 196.917969 114.722656 C 197.945312 114.890625 198.960938 115.109375 199.964844 115.378906 C 200.96875 115.644531 201.957031 115.964844 202.933594 116.332031 C 203.90625 116.699219 204.855469 117.117188 205.789062 117.582031 C 206.71875 118.042969 207.625 118.550781 208.503906 119.105469 C 209.386719 119.660156 210.238281 120.257812 211.058594 120.898438 C 211.878906 121.535156 212.664062 122.214844 213.417969 122.933594 C 214.171875 123.652344 214.886719 124.40625 215.5625 125.195312 C 216.242188 125.984375 216.878906 126.804688 217.472656 127.660156 C 218.066406 128.511719 218.617188 129.394531 219.125 130.300781 L 294.878906 130.300781 C 294.335938 129.308594 293.78125 128.324219 293.207031 127.347656 L 310.058594 101.515625 L 280.785156 72.554688 L 255.140625 89.683594 C 244.851562 83.457031 233.851562 78.964844 222.148438 76.203125 Z M 215.78125 46.066406 " fill-opacity="1" fill-rule="nonzero"/></g></svg>